<svg xmlns="http://www.w3.org/2000/svg" viewBox="0 0 156.99 58.95"><defs><style>.cls-1{fill:#fff;}</style></defs><g id="Calque_2" data-name="Calque 2"><g id="Calque_1-2" data-name="Calque 1"><path class="cls-1" d="M152.71,22.8,133.12,32.85A1.5,1.5,0,0,1,131,31.52h0a1.48,1.48,0,0,1,.83-1.33l18.34-9.12V21l-18.34-9.12a1.48,1.48,0,0,1-.83-1.33h0a1.5,1.5,0,0,1,2.17-1.33l19.59,10a1.5,1.5,0,0,1,.81,1.33v.9A1.5,1.5,0,0,1,152.71,22.8Z"/><path class="cls-1" d="M112.56,27.21c1-2.2,2-4.4,2.91-6.61a.77.77,0,0,1,.73-.54,1.77,1.77,0,0,0,1.61-1.5,1.82,1.82,0,0,0-3.24-1.44,1.76,1.76,0,0,0,0,2.2.79.79,0,0,1,.1.9q-2.94,6.63-5.85,13.25c-.1.23-.19.5-.5.49s-.49-.25-.5-.59l-.24-4.9q-.33-7.11-.69-14.2a1.15,1.15,0,0,1,.43-1c1.71-1.39,3.4-2.8,5.09-4.21a.91.91,0,0,1,1-.13l11.33,5a.89.89,0,0,1,.54.79q.15,3.36.32,6.73a.89.89,0,0,1-.33.75q-7.4,6.11-14.79,12.24c-.22.19-.45.34-.73.12s-.18-.46-.07-.71C110.59,31.66,111.57,29.44,112.56,27.21Z"/><path class="cls-1" d="M120.9,7l6.78,3a.9.9,0,0,1,.47,1.21c-.28.65-.57,1.3-.86,1.95-.2.45-.42.54-.88.33q-7-3.09-14-6.18c-.54-.23-.57-.47-.25-1.1s.51-1.08.73-1.64c.29-.77.43-.91,1-.65Z"/><path class="cls-1" d="M115.56,3.55a.9.9,0,0,1-.47-1.21c.31-.72.63-1.44,1-2.14,0-.13.34-.17.52-.2s.22.08.33.13l11.25,5c.64.28.69.39.41,1l-.8,1.82a.92.92,0,0,1-1.21.48Z"/><path class="cls-1" d="M80.27,22.1l19.59,10A1.49,1.49,0,0,0,102,30.83h0a1.51,1.51,0,0,0-.82-1.34L82.87,20.37v-.09l18.34-9.13A1.48,1.48,0,0,0,102,9.82h0A1.49,1.49,0,0,0,99.86,8.5L80.27,18.55a1.49,1.49,0,0,0-.81,1.32v.91A1.51,1.51,0,0,0,80.27,22.1Z"/><path class="cls-1" d="M18,7.6h-7.4V24.86H7.4V7.6H0v-3H18Z"/><path class="cls-1" d="M19.84,4.56h3.33l4.06,18.07L31.29,4.56H36.8l4.06,18.07L44.92,4.56h3.34l-4.79,20.3H38.25L34.05,6.68,29.84,24.86H24.62Z"/><path class="cls-1" d="M50.69,4.56h3.19v20.3H50.69Z"/><path class="cls-1" d="M61.25,24.86H58.06V4.56H63.6l9.45,18v-18h3.19v20.3H70.7l-9.45-18Z"/><path class="cls-1" d="M9.47,58.66H6.28V38.36h5.53l9.46,18v-18h3.19v20.3H18.92l-9.45-18Z"/><path class="cls-1" d="M43.42,38.36v3H31.82v5.22H42.55v3.05H31.82v5.94H43.71v3H28.63V38.36Z"/><path class="cls-1" d="M64,41.4h-7.4V58.66H53.37V41.4H46v-3H64Z"/><path class="cls-1" d="M65.81,38.36h3.34l4.06,18.07,4.06-18.07h5.51l4.06,18.07L90.9,38.36h3.33l-4.78,20.3H84.23L80,40.48l-4.2,18.18H70.6Z"/><path class="cls-1" d="M96.91,43.25a10.39,10.39,0,0,1,3.83-3.79,11,11,0,0,1,10.7,0,10.32,10.32,0,0,1,3.83,3.79,10.52,10.52,0,0,1,0,10.52,10.32,10.32,0,0,1-3.83,3.79,10.67,10.67,0,0,1-14.53-3.79,10.58,10.58,0,0,1,0-10.52Zm2.9,9.14a6.77,6.77,0,0,0,2.63,2.6,7.76,7.76,0,0,0,7.31,0,6.91,6.91,0,0,0,2.62-2.61,7.58,7.58,0,0,0,1-3.86,7.75,7.75,0,0,0-1-3.86A6.82,6.82,0,0,0,109.78,42a7.41,7.41,0,0,0-3.69-.93,7.28,7.28,0,0,0-3.68,1,6.84,6.84,0,0,0-2.61,2.62,8.18,8.18,0,0,0,0,7.71Z"/><path class="cls-1" d="M132.45,58.66a6.52,6.52,0,0,1-.55-1.7,18.67,18.67,0,0,1-.17-2.94,3.81,3.81,0,0,0-.93-2.94,3.9,3.9,0,0,0-2.7-.83h-4.93v8.41H120V38.36h9.72a8,8,0,0,1,3.51.72,5.41,5.41,0,0,1,2.25,2,5.29,5.29,0,0,1,.77,2.8,5.23,5.23,0,0,1-1.08,3.32,6.21,6.21,0,0,1-3,2,5,5,0,0,1,2.3,1.73,5.63,5.63,0,0,1,.89,3.09,20.83,20.83,0,0,0,.25,2.62,3.1,3.1,0,0,0,.77,1.53v.46Zm-3-11.46a4,4,0,0,0,2.57-.75,3,3,0,0,0,0-4.29,4,4,0,0,0-2.57-.76h-6.24v5.8Z"/><path class="cls-1" d="M157,58.66h-3.92l-6.26-9.95-3.89,4.15v5.8h-3.19V38.36h3.19V48.42l9.43-10.06h4.2l-7.48,7.94Z"/></g></g></svg>