<svg xmlns="http://www.w3.org/2000/svg" viewBox="0 0 93.91 44.01"><defs><style>.cls-1{fill:#1d1d1b;}</style></defs><g id="Calque_2" data-name="Calque 2"><g id="Calque_1-2" data-name="Calque 1"><path class="cls-1" d="M92.88,28.91,68,41.65A1.89,1.89,0,0,1,65.29,40h0a1.9,1.9,0,0,1,1-1.69L89.59,26.72v-.13L66.34,15a1.9,1.9,0,0,1-1-1.69h0A1.89,1.89,0,0,1,68,11.66L92.88,24.4a1.9,1.9,0,0,1,1,1.68v1.15A1.9,1.9,0,0,1,92.88,28.91Z"/><path class="cls-1" d="M42,34.5c1.24-2.79,2.48-5.58,3.69-8.38a1,1,0,0,1,.93-.68,2.26,2.26,0,0,0,2.05-1.9,2.32,2.32,0,0,0-4.12-1.83,2.25,2.25,0,0,0,0,2.79,1,1,0,0,1,.13,1.15c-2.49,5.59-5,11.2-7.43,16.8-.12.29-.23.63-.63.61s-.61-.32-.63-.74l-.3-6.22c-.29-6-.57-12-.88-18a1.5,1.5,0,0,1,.54-1.22q3.26-2.64,6.46-5.33A1.16,1.16,0,0,1,43,11.37q7.19,3.18,14.37,6.34a1.17,1.17,0,0,1,.69,1q.18,4.26.41,8.53a1.13,1.13,0,0,1-.42.95L39.25,43.73c-.29.24-.58.42-.94.15s-.22-.58-.08-.9Q40.09,38.74,42,34.5Z"/><path class="cls-1" d="M52.55,8.83l8.59,3.8a1.16,1.16,0,0,1,.6,1.53c-.36.83-.73,1.65-1.09,2.48-.26.57-.53.68-1.12.42L41.77,9.22c-.67-.29-.71-.6-.31-1.39s.65-1.38.92-2.09c.37-1,.55-1.15,1.29-.82Z"/><path class="cls-1" d="M45.77,4.5A1.16,1.16,0,0,1,45.17,3c.4-.92.8-1.82,1.23-2.72.08-.16.43-.21.67-.25s.28.1.42.16l14.27,6.3c.81.35.86.49.51,1.29l-1,2.31a1.16,1.16,0,0,1-1.53.6Z"/><path class="cls-1" d="M1,28,25.87,40.77a1.89,1.89,0,0,0,2.75-1.68h0a1.89,1.89,0,0,0-1.05-1.69L4.32,25.83v-.12L27.57,14.14a1.89,1.89,0,0,0,1.05-1.69h0a1.88,1.88,0,0,0-2.75-1.67L1,23.52A1.89,1.89,0,0,0,0,25.2v1.15A1.88,1.88,0,0,0,1,28Z"/></g></g></svg>