<svg xmlns="http://www.w3.org/2000/svg" viewBox="0 0 248.3 116.38"><defs><style>.cls-1{fill:#fff;}</style></defs><g id="Calque_2" data-name="Calque 2"><g id="Calque_1-2" data-name="Calque 1"><path class="cls-1" d="M245.59,76.43l-65.69,33.7a5,5,0,0,1-7.26-4.44h0a5,5,0,0,1,2.77-4.46l61.48-30.59v-.32L175.41,39.73a5,5,0,0,1-2.77-4.46h0a5,5,0,0,1,7.26-4.44l65.69,33.69A5,5,0,0,1,248.3,69v3A5,5,0,0,1,245.59,76.43Z"/><path class="cls-1" d="M111,91.23c3.26-7.38,6.53-14.76,9.75-22.16a2.63,2.63,0,0,1,2.45-1.82,5.93,5.93,0,0,0,5.42-5,6.12,6.12,0,0,0-10.88-4.84,5.94,5.94,0,0,0-.1,7.39,2.62,2.62,0,0,1,.34,3Q108.1,90,98.32,112.23c-.34.78-.63,1.67-1.69,1.63-1.22,0-1.61-.85-1.66-2q-.37-8.22-.79-16.44Q93,71.65,91.86,47.84a3.91,3.91,0,0,1,1.43-3.22q8.59-7,17.07-14.11a3.07,3.07,0,0,1,3.21-.45q19,8.43,38,16.76a3.06,3.06,0,0,1,1.82,2.67q.48,11.28,1.09,22.55a3.06,3.06,0,0,1-1.11,2.52q-24.81,20.5-49.59,41.05c-.77.64-1.52,1.13-2.48.41s-.59-1.54-.22-2.39Z"/><path class="cls-1" d="M138.93,23.35l22.74,10a3.08,3.08,0,0,1,1.58,4c-1,2.19-1.92,4.37-2.9,6.56-.67,1.51-1.4,1.79-2.95,1.11L110.45,24.39c-1.79-.79-1.9-1.6-.83-3.69a55.23,55.23,0,0,0,2.44-5.51c1-2.58,1.46-3,3.4-2.19Z"/><path class="cls-1" d="M121,11.91a3.08,3.08,0,0,1-1.57-4C120.5,5.43,121.55,3,122.69.67c.2-.42,1.14-.57,1.77-.66.34-.06.73.25,1.1.42l37.73,16.64c2.14.95,2.28,1.31,1.35,3.43L162,26.6a3.09,3.09,0,0,1-4.06,1.58Z"/><path class="cls-1" d="M2.71,74.1,68.4,107.79a5,5,0,0,0,7.26-4.44h0a5,5,0,0,0-2.77-4.46L11.41,68.3V68L72.89,37.39a5,5,0,0,0,2.77-4.46h0a5,5,0,0,0-7.26-4.44L2.71,62.19A5,5,0,0,0,0,66.62v3A5,5,0,0,0,2.71,74.1Z"/></g></g></svg>